<svg width="493" height="146" viewBox="0 0 493 146" fill="none" xmlns="http://www.w3.org/2000/svg">
<path d="M377.8 61.6001C369.2 61.6001 360.5 64.0001 360.5 82.1001C360.5 89.2001 361.5 93.7001 363.8 96.6001C366.3 99.9001 370.5 101.4 376.9 101.4C380.7 101.4 387.1 101 390.8 100.4L391.4 100.3V94.6001H378.7C371.2 94.6001 368.7 92.6001 368.7 86.7001V84.6001H388.7C391.8 84.6001 393.7 82.5001 393.7 79.4001V77.1001C393.8 66.7001 388.4 61.6001 377.8 61.6001ZM385.8 78.2001H368.7V76.7001C368.7 73.0001 370 68.5001 376.2 68.5001H379.3C384.8 68.5001 385.9 71.8001 385.9 76.8001V78.2001H385.8Z" fill="#3C3C3A"/>
<path d="M311.4 61.6001H309.5C297.9 61.6001 292.8 67.9001 292.8 82.0001C292.8 93.7001 295.6 101.4 309.5 101.4H311.4C322.7 101.4 328 95.1001 328 81.5001C328 67.5001 323 61.6001 311.4 61.6001ZM319.5 84.7001C319.5 91.8001 317.2 94.7001 311.4 94.7001H309.3C302.4 94.7001 301.2 91.6001 301.2 82.9001V80.3001C301.2 71.0001 303 68.5001 309.7 68.5001H310.9C317.2 68.5001 319.4 70.3001 319.4 80.3001V84.7001H319.5Z" fill="#3C3C3A"/>
<path d="M236.4 61.6001C227.8 61.6001 219.1 64.0001 219.1 82.1001C219.1 89.2001 220.1 93.7001 222.4 96.6001C224.9 99.9001 229.1 101.4 235.5 101.4C239.3 101.4 245.7 101 249.4 100.4L250 100.3V94.6001H237.3C229.8 94.6001 227.3 92.6001 227.3 86.7001V84.6001H247.3C250.4 84.6001 252.3 82.5001 252.3 79.4001V77.1001C252.4 66.7001 247 61.6001 236.4 61.6001ZM244.4 78.2001H227.3V76.7001C227.3 73.0001 228.6 68.5001 234.8 68.5001H237.9C243.4 68.5001 244.5 71.8001 244.5 76.8001V78.2001H244.4Z" fill="#3C3C3A"/>
<path d="M205 62.5H194C186.5 62.6 179.2 64.6 179.2 82.2C179.2 100 186.1 101.4 195.8 101.4C199.8 101.4 205.4 101.3 212.3 100.3L213 100.2V50H205V62.5ZM205 94.4H196.1C189.4 94.4 187.6 92.2 187.6 84.1V79.6C187.6 72.2 190 69.6 196.7 69.6H205V94.4Z" fill="#3C3C3A"/>
<path d="M416.2 61.6001C412.1 61.6001 407.2 61.9001 403.6 62.5001L403 62.6001V68.6001H416.8C421.9 68.6001 423.7 70.3001 423.7 75.2001V77.1001C419.5 76.5001 415.4 76.3001 411.8 76.3001C405.6 76.3001 397.3 77.7001 397.3 89.6001C397.3 100.7 404.1 101.6 413 101.6C417 101.6 424.9 101.2 430.8 100.2L431.4 100.1L431.5 75.2001C431.4 63.2001 424.2 61.6001 416.2 61.6001ZM423.6 94.4001H411.1C407.1 94.4001 405.6 93.1001 405.6 89.7001V88.3001C405.6 84.8001 407.4 83.2001 411.5 83.2001H423.6V94.4001Z" fill="#3C3C3A"/>
<path d="M272.4 90.8L260.6 62.5H252.3L268.2 100.6H276.1L291.6 62.5H283.5L272.4 90.8Z" fill="#3C3C3A"/>
<path d="M344.3 89.2001V68.8001H355.9V62.5001H347.2H344.4V52.0001V50.6001H336.9V52.0001V62.5001H330.7V62.6001V63.4001V65.7001V66.4001V68.8001H336.4V89.2001C336.4 95.3001 337.8 101.5 348 101.5C351 101.5 354.1 101.1 357.4 100.3L358 100.2V94.5001H350C345.6 94.5001 344.3 93.3001 344.3 89.2001Z" fill="#3C3C3A"/>
<path d="M477.7 61.5C473.9 61.5 469.1 62.1 464.7 63.1C462 61.7 458.7 61.6 455.6 61.6C448.3 61.6 439.6 63.1 439.6 63.1V100.6H447.7V68.7H455.2C460.7 68.7 462.3 70.5 462.3 76.6V100.6H470.4V74.5C470.4 72.2 470.1 70.4 469.5 68.9H476.5C482.7 68.9 484.6 70.8 484.6 76.8V100.6H492.6V74.7C492.6 61.5 482.5 61.5 477.7 61.5Z" fill="#3C3C3A"/>
<path d="M72.7 0C32.6 0 0 32.5 0 72.7C0 112.8 32.5 145.4 72.7 145.4C112.8 145.4 145.4 112.9 145.4 72.7C145.4 32.5 112.9 0 72.7 0Z" fill="#F8485E"/>
<path d="M121.2 67.2002H93.4V118H60.4C42.5 118 26.4 107.2 26.4 84.0002C26.4 66.8002 35.4 50.0002 60.4 50.0002H68.1C68.1 50.0002 71.2 58.4002 72.3 67.4002H60.8C50.5 67.4002 44.6 73.0002 44.6 84.0002C44.6 94.4002 50.1 100.6 60.8 100.6H75.5V24.2002H93.3V50.0002H121.1V67.2002H121.2Z" fill="white"/>
</svg>
